<svg width="313" height="66" viewBox="0 0 313 66" fill="none" xmlns="http://www.w3.org/2000/svg">
<path d="M42.9412 16H292L249.059 66H0L42.9412 16Z" fill="#001E27"/>
<path d="M19.6271 60.25L61.9111 10.75H311.373L269.089 60.25H19.6271Z" stroke="#00E2F4" stroke-width="1.5"/>
<path d="M102.518 29.9641C103.169 30.1028 103.691 30.4281 104.086 30.9401C104.481 31.4415 104.678 32.0175 104.678 32.6681C104.678 33.6068 104.347 34.3535 103.686 34.9081C103.035 35.4521 102.123 35.7241 100.95 35.7241H95.718V24.4921H100.774C101.915 24.4921 102.806 24.7535 103.446 25.2761C104.097 25.7988 104.422 26.5081 104.422 27.4041C104.422 28.0655 104.246 28.6148 103.894 29.0521C103.553 29.4895 103.094 29.7935 102.518 29.9641ZM98.454 29.0361H100.246C100.694 29.0361 101.035 28.9401 101.27 28.7481C101.515 28.5455 101.638 28.2521 101.638 27.8681C101.638 27.4841 101.515 27.1908 101.27 26.9881C101.035 26.7855 100.694 26.6841 100.246 26.6841H98.454V29.0361ZM100.47 33.5161C100.929 33.5161 101.281 33.4148 101.526 33.2121C101.782 32.9988 101.91 32.6948 101.91 32.3001C101.91 31.9055 101.777 31.5961 101.51 31.3721C101.254 31.1481 100.897 31.0361 100.438 31.0361H98.454V33.5161H100.47ZM106.041 31.2441C106.041 30.3268 106.212 29.5215 106.553 28.8281C106.905 28.1348 107.38 27.6015 107.977 27.2281C108.574 26.8548 109.241 26.6681 109.977 26.6681C110.606 26.6681 111.156 26.7961 111.625 27.0521C112.105 27.3081 112.473 27.6441 112.729 28.0601V26.7961H115.465V35.7241H112.729V34.4601C112.462 34.8761 112.089 35.2121 111.609 35.4681C111.14 35.7241 110.59 35.8521 109.961 35.8521C109.236 35.8521 108.574 35.6655 107.977 35.2921C107.38 34.9081 106.905 34.3695 106.553 33.6761C106.212 32.9721 106.041 32.1615 106.041 31.2441ZM112.729 31.2601C112.729 30.5775 112.537 30.0388 112.153 29.6441C111.78 29.2495 111.321 29.0521 110.777 29.0521C110.233 29.0521 109.769 29.2495 109.385 29.6441C109.012 30.0281 108.825 30.5615 108.825 31.2441C108.825 31.9268 109.012 32.4708 109.385 32.8761C109.769 33.2708 110.233 33.4681 110.777 33.4681C111.321 33.4681 111.78 33.2708 112.153 32.8761C112.537 32.4815 112.729 31.9428 112.729 31.2601ZM119.14 25.8681C118.66 25.8681 118.266 25.7295 117.956 25.4521C117.658 25.1641 117.508 24.8121 117.508 24.3961C117.508 23.9695 117.658 23.6175 117.956 23.3401C118.266 23.0521 118.66 22.9081 119.14 22.9081C119.61 22.9081 119.994 23.0521 120.292 23.3401C120.602 23.6175 120.756 23.9695 120.756 24.3961C120.756 24.8121 120.602 25.1641 120.292 25.4521C119.994 25.7295 119.61 25.8681 119.14 25.8681ZM120.5 26.7961V35.7241H117.764V26.7961H120.5ZM128.083 35.7241L126.371 33.2441L124.931 35.7241H121.971L124.915 31.1641L121.891 26.7961H124.963L126.675 29.2601L128.115 26.7961H131.075L128.083 31.2921L131.155 35.7241H128.083ZM140.945 31.1161C140.945 31.3721 140.929 31.6388 140.897 31.9161H134.705C134.748 32.4708 134.924 32.8975 135.233 33.1961C135.553 33.4841 135.943 33.6281 136.401 33.6281C137.084 33.6281 137.559 33.3401 137.825 32.7641H140.737C140.588 33.3508 140.316 33.8788 139.921 34.3481C139.537 34.8175 139.052 35.1855 138.465 35.4521C137.879 35.7188 137.223 35.8521 136.497 35.8521C135.623 35.8521 134.844 35.6655 134.161 35.2921C133.479 34.9188 132.945 34.3855 132.561 33.6921C132.177 32.9988 131.985 32.1881 131.985 31.2601C131.985 30.3321 132.172 29.5215 132.545 28.8281C132.929 28.1348 133.463 27.6015 134.145 27.2281C134.828 26.8548 135.612 26.6681 136.497 26.6681C137.361 26.6681 138.129 26.8495 138.801 27.2121C139.473 27.5748 139.996 28.0921 140.369 28.7641C140.753 29.4361 140.945 30.2201 140.945 31.1161ZM138.145 30.3961C138.145 29.9268 137.985 29.5535 137.665 29.2761C137.345 28.9988 136.945 28.8601 136.465 28.8601C136.007 28.8601 135.617 28.9935 135.297 29.2601C134.988 29.5268 134.796 29.9055 134.721 30.3961H138.145ZM145.875 31.2441C145.875 30.3268 146.046 29.5215 146.387 28.8281C146.739 28.1348 147.214 27.6015 147.811 27.2281C148.409 26.8548 149.075 26.6681 149.811 26.6681C150.441 26.6681 150.99 26.7961 151.459 27.0521C151.939 27.3081 152.307 27.6441 152.563 28.0601V26.7961H155.299V35.7241H152.563V34.4601C152.297 34.8761 151.923 35.2121 151.443 35.4681C150.974 35.7241 150.425 35.8521 149.795 35.8521C149.07 35.8521 148.409 35.6655 147.811 35.2921C147.214 34.9081 146.739 34.3695 146.387 33.6761C146.046 32.9721 145.875 32.1615 145.875 31.2441ZM152.563 31.2601C152.563 30.5775 152.371 30.0388 151.987 29.6441C151.614 29.2495 151.155 29.0521 150.611 29.0521C150.067 29.0521 149.603 29.2495 149.219 29.6441C148.846 30.0281 148.659 30.5615 148.659 31.2441C148.659 31.9268 148.846 32.4708 149.219 32.8761C149.603 33.2708 150.067 33.4681 150.611 33.4681C151.155 33.4681 151.614 33.2708 151.987 32.8761C152.371 32.4815 152.563 31.9428 152.563 31.2601ZM160.991 26.6681C161.62 26.6681 162.169 26.7961 162.639 27.0521C163.119 27.3081 163.487 27.6441 163.743 28.0601V26.7961H166.479V35.7081C166.479 36.5295 166.313 37.2708 165.983 37.9321C165.663 38.6041 165.167 39.1375 164.495 39.5321C163.833 39.9268 163.007 40.1241 162.015 40.1241C160.692 40.1241 159.62 39.8095 158.799 39.1801C157.977 38.5615 157.508 37.7188 157.391 36.6521H160.095C160.18 36.9935 160.383 37.2601 160.703 37.4521C161.023 37.6548 161.417 37.7561 161.887 37.7561C162.452 37.7561 162.9 37.5908 163.231 37.2601C163.572 36.9401 163.743 36.4228 163.743 35.7081V34.4441C163.476 34.8601 163.108 35.2015 162.639 35.4681C162.169 35.7241 161.62 35.8521 160.991 35.8521C160.255 35.8521 159.588 35.6655 158.991 35.2921C158.393 34.9081 157.919 34.3695 157.567 33.6761C157.225 32.9721 157.055 32.1615 157.055 31.2441C157.055 30.3268 157.225 29.5215 157.567 28.8281C157.919 28.1348 158.393 27.6015 158.991 27.2281C159.588 26.8548 160.255 26.6681 160.991 26.6681ZM163.743 31.2601C163.743 30.5775 163.551 30.0388 163.167 29.6441C162.793 29.2495 162.335 29.0521 161.791 29.0521C161.247 29.0521 160.783 29.2495 160.399 29.6441C160.025 30.0281 159.839 30.5615 159.839 31.2441C159.839 31.9268 160.025 32.4708 160.399 32.8761C160.783 33.2708 161.247 33.4681 161.791 33.4681C162.335 33.4681 162.793 33.2708 163.167 32.8761C163.551 32.4815 163.743 31.9428 163.743 31.2601ZM172.842 35.8521C171.967 35.8521 171.178 35.6655 170.474 35.2921C169.781 34.9188 169.231 34.3855 168.826 33.6921C168.431 32.9988 168.234 32.1881 168.234 31.2601C168.234 30.3428 168.437 29.5375 168.842 28.8441C169.247 28.1401 169.802 27.6015 170.506 27.2281C171.21 26.8548 171.999 26.6681 172.874 26.6681C173.749 26.6681 174.538 26.8548 175.242 27.2281C175.946 27.6015 176.501 28.1401 176.906 28.8441C177.311 29.5375 177.514 30.3428 177.514 31.2601C177.514 32.1775 177.306 32.9881 176.89 33.6921C176.485 34.3855 175.925 34.9188 175.21 35.2921C174.506 35.6655 173.717 35.8521 172.842 35.8521ZM172.842 33.4841C173.365 33.4841 173.807 33.2921 174.17 32.9081C174.543 32.5241 174.73 31.9748 174.73 31.2601C174.73 30.5455 174.549 29.9961 174.186 29.6121C173.834 29.2281 173.397 29.0361 172.874 29.0361C172.341 29.0361 171.898 29.2281 171.546 29.6121C171.194 29.9855 171.018 30.5348 171.018 31.2601C171.018 31.9748 171.189 32.5241 171.53 32.9081C171.882 33.2921 172.319 33.4841 172.842 33.4841ZM182.021 28.2841C182.341 27.7935 182.741 27.4095 183.221 27.1321C183.701 26.8441 184.235 26.7001 184.821 26.7001V29.5961H184.069C183.387 29.5961 182.875 29.7455 182.533 30.0441C182.192 30.3321 182.021 30.8441 182.021 31.5801V35.7241H179.285V26.7961H182.021V28.2841ZM185.905 31.2441C185.905 30.3268 186.076 29.5215 186.417 28.8281C186.769 28.1348 187.244 27.6015 187.841 27.2281C188.439 26.8548 189.105 26.6681 189.841 26.6681C190.471 26.6681 191.02 26.7961 191.489 27.0521C191.969 27.3081 192.337 27.6441 192.593 28.0601V26.7961H195.329V35.7241H192.593V34.4601C192.327 34.8761 191.953 35.2121 191.473 35.4681C191.004 35.7241 190.455 35.8521 189.825 35.8521C189.1 35.8521 188.439 35.6655 187.841 35.2921C187.244 34.9081 186.769 34.3695 186.417 33.6761C186.076 32.9721 185.905 32.1615 185.905 31.2441ZM192.593 31.2601C192.593 30.5775 192.401 30.0388 192.017 29.6441C191.644 29.2495 191.185 29.0521 190.641 29.0521C190.097 29.0521 189.633 29.2495 189.249 29.6441C188.876 30.0281 188.689 30.5615 188.689 31.2441C188.689 31.9268 188.876 32.4708 189.249 32.8761C189.633 33.2708 190.097 33.4681 190.641 33.4681C191.185 33.4681 191.644 33.2708 192.017 32.8761C192.401 32.4815 192.593 31.9428 192.593 31.2601ZM205.403 35.8521C204.529 35.8521 203.739 35.6655 203.035 35.2921C202.342 34.9188 201.793 34.3855 201.387 33.6921C200.993 32.9988 200.795 32.1881 200.795 31.2601C200.795 30.3428 200.998 29.5375 201.403 28.8441C201.809 28.1401 202.363 27.6015 203.067 27.2281C203.771 26.8548 204.561 26.6681 205.435 26.6681C206.31 26.6681 207.099 26.8548 207.803 27.2281C208.507 27.6015 209.062 28.1401 209.467 28.8441C209.873 29.5375 210.075 30.3428 210.075 31.2601C210.075 32.1775 209.867 32.9881 209.451 33.6921C209.046 34.3855 208.486 34.9188 207.771 35.2921C207.067 35.6655 206.278 35.8521 205.403 35.8521ZM205.403 33.4841C205.926 33.4841 206.369 33.2921 206.731 32.9081C207.105 32.5241 207.291 31.9748 207.291 31.2601C207.291 30.5455 207.11 29.9961 206.747 29.6121C206.395 29.2281 205.958 29.0361 205.435 29.0361C204.902 29.0361 204.459 29.2281 204.107 29.6121C203.755 29.9855 203.579 30.5348 203.579 31.2601C203.579 31.9748 203.75 32.5241 204.091 32.9081C204.443 33.2921 204.881 33.4841 205.403 33.4841ZM86.0709 43.8681C85.5909 43.8681 85.1962 43.7295 84.8869 43.4521C84.5882 43.1641 84.4389 42.8121 84.4389 42.3961C84.4389 41.9695 84.5882 41.6175 84.8869 41.3401C85.1962 41.0521 85.5909 40.9081 86.0709 40.9081C86.5402 40.9081 86.9242 41.0521 87.2229 41.3401C87.5322 41.6175 87.6869 41.9695 87.6869 42.3961C87.6869 42.8121 87.5322 43.1641 87.2229 43.4521C86.9242 43.7295 86.5402 43.8681 86.0709 43.8681ZM87.4309 44.7961V53.7241H84.6949V44.7961H87.4309ZM95.1736 44.7001C96.219 44.7001 97.051 45.0415 97.6696 45.7241C98.299 46.3961 98.6136 47.3241 98.6136 48.5081V53.7241H95.8936V48.8761C95.8936 48.2788 95.739 47.8148 95.4296 47.4841C95.1203 47.1535 94.7043 46.9881 94.1816 46.9881C93.659 46.9881 93.243 47.1535 92.9336 47.4841C92.6243 47.8148 92.4696 48.2788 92.4696 48.8761V53.7241H89.7336V44.7961H92.4696V45.9801C92.747 45.5855 93.1203 45.2761 93.5896 45.0521C94.059 44.8175 94.587 44.7001 95.1736 44.7001ZM100.291 49.2441C100.291 48.3268 100.462 47.5215 100.803 46.8281C101.155 46.1348 101.63 45.6015 102.227 45.2281C102.824 44.8548 103.491 44.6681 104.227 44.6681C104.814 44.6681 105.347 44.7908 105.827 45.0361C106.318 45.2815 106.702 45.6121 106.979 46.0281V41.8841H109.715V53.7241H106.979V52.4441C106.723 52.8708 106.355 53.2121 105.875 53.4681C105.406 53.7241 104.856 53.8521 104.227 53.8521C103.491 53.8521 102.824 53.6655 102.227 53.2921C101.63 52.9081 101.155 52.3695 100.803 51.6761C100.462 50.9721 100.291 50.1615 100.291 49.2441ZM106.979 49.2601C106.979 48.5775 106.787 48.0388 106.403 47.6441C106.03 47.2495 105.571 47.0521 105.027 47.0521C104.483 47.0521 104.019 47.2495 103.635 47.6441C103.262 48.0281 103.075 48.5615 103.075 49.2441C103.075 49.9268 103.262 50.4708 103.635 50.8761C104.019 51.2708 104.483 51.4681 105.027 51.4681C105.571 51.4681 106.03 51.2708 106.403 50.8761C106.787 50.4815 106.979 49.9428 106.979 49.2601ZM114.958 44.7961V53.7241H112.222V44.7961H114.958ZM115.454 42.5721L111.598 44.1881V42.3001L115.454 40.4441V42.5721ZM116.931 49.2601C116.931 48.3321 117.118 47.5215 117.491 46.8281C117.875 46.1348 118.403 45.6015 119.075 45.2281C119.758 44.8548 120.536 44.6681 121.411 44.6681C122.531 44.6681 123.464 44.9615 124.211 45.5481C124.968 46.1348 125.464 46.9615 125.699 48.0281H122.787C122.542 47.3455 122.067 47.0041 121.363 47.0041C120.862 47.0041 120.462 47.2015 120.163 47.5961C119.864 47.9801 119.715 48.5348 119.715 49.2601C119.715 49.9855 119.864 50.5455 120.163 50.9401C120.462 51.3241 120.862 51.5161 121.363 51.5161C122.067 51.5161 122.542 51.1748 122.787 50.4921H125.699C125.464 51.5375 124.968 52.3588 124.211 52.9561C123.454 53.5535 122.52 53.8521 121.411 53.8521C120.536 53.8521 119.758 53.6655 119.075 53.2921C118.403 52.9188 117.875 52.3855 117.491 51.6921C117.118 50.9988 116.931 50.1881 116.931 49.2601ZM135.898 49.1161C135.898 49.3721 135.882 49.6388 135.85 49.9161H129.658C129.701 50.4708 129.877 50.8975 130.186 51.1961C130.506 51.4841 130.896 51.6281 131.354 51.6281C132.037 51.6281 132.512 51.3401 132.778 50.7641H135.69C135.541 51.3508 135.269 51.8788 134.874 52.3481C134.49 52.8175 134.005 53.1855 133.418 53.4521C132.832 53.7188 132.176 53.8521 131.45 53.8521C130.576 53.8521 129.797 53.6655 129.114 53.2921C128.432 52.9188 127.898 52.3855 127.514 51.6921C127.13 50.9988 126.938 50.1881 126.938 49.2601C126.938 48.3321 127.125 47.5215 127.498 46.8281C127.882 46.1348 128.416 45.6015 129.098 45.2281C129.781 44.8548 130.565 44.6681 131.45 44.6681C132.314 44.6681 133.082 44.8495 133.754 45.2121C134.426 45.5748 134.949 46.0921 135.322 46.7641C135.706 47.4361 135.898 48.2201 135.898 49.1161ZM133.098 48.3961C133.098 47.9268 132.938 47.5535 132.618 47.2761C132.298 46.9988 131.898 46.8601 131.418 46.8601C130.96 46.8601 130.57 46.9935 130.25 47.2601C129.941 47.5268 129.749 47.9055 129.674 48.3961H133.098ZM140.828 49.2601C140.828 48.3321 141.015 47.5215 141.388 46.8281C141.772 46.1348 142.3 45.6015 142.972 45.2281C143.655 44.8548 144.434 44.6681 145.308 44.6681C146.428 44.6681 147.362 44.9615 148.108 45.5481C148.866 46.1348 149.362 46.9615 149.596 48.0281H146.684C146.439 47.3455 145.964 47.0041 145.26 47.0041C144.759 47.0041 144.359 47.2015 144.06 47.5961C143.762 47.9801 143.612 48.5348 143.612 49.2601C143.612 49.9855 143.762 50.5455 144.06 50.9401C144.359 51.3241 144.759 51.5161 145.26 51.5161C145.964 51.5161 146.439 51.1748 146.684 50.4921H149.596C149.362 51.5375 148.866 52.3588 148.108 52.9561C147.351 53.5535 146.418 53.8521 145.308 53.8521C144.434 53.8521 143.655 53.6655 142.972 53.2921C142.3 52.9188 141.772 52.3855 141.388 51.6921C141.015 50.9988 140.828 50.1881 140.828 49.2601ZM155.444 53.8521C154.569 53.8521 153.78 53.6655 153.076 53.2921C152.383 52.9188 151.833 52.3855 151.428 51.6921C151.033 50.9988 150.836 50.1881 150.836 49.2601C150.836 48.3428 151.039 47.5375 151.444 46.8441C151.849 46.1401 152.404 45.6015 153.108 45.2281C153.812 44.8548 154.601 44.6681 155.476 44.6681C156.351 44.6681 157.14 44.8548 157.844 45.2281C158.548 45.6015 159.103 46.1401 159.508 46.8441C159.913 47.5375 160.116 48.3428 160.116 49.2601C160.116 50.1775 159.908 50.9881 159.492 51.6921C159.087 52.3855 158.527 52.9188 157.812 53.2921C157.108 53.6655 156.319 53.8521 155.444 53.8521ZM155.444 51.4841C155.967 51.4841 156.409 51.2921 156.772 50.9081C157.145 50.5241 157.332 49.9748 157.332 49.2601C157.332 48.5455 157.151 47.9961 156.788 47.6121C156.436 47.2281 155.999 47.0361 155.476 47.0361C154.943 47.0361 154.5 47.2281 154.148 47.6121C153.796 47.9855 153.62 48.5348 153.62 49.2601C153.62 49.9748 153.791 50.5241 154.132 50.9081C154.484 51.2921 154.921 51.4841 155.444 51.4841ZM173.279 44.7001C174.389 44.7001 175.269 45.0361 175.919 45.7081C176.581 46.3801 176.911 47.3135 176.911 48.5081V53.7241H174.191V48.8761C174.191 48.3001 174.037 47.8575 173.727 47.5481C173.429 47.2281 173.013 47.0681 172.479 47.0681C171.946 47.0681 171.525 47.2281 171.215 47.5481C170.917 47.8575 170.767 48.3001 170.767 48.8761V53.7241H168.047V48.8761C168.047 48.3001 167.893 47.8575 167.583 47.5481C167.285 47.2281 166.869 47.0681 166.335 47.0681C165.802 47.0681 165.381 47.2281 165.071 47.5481C164.773 47.8575 164.623 48.3001 164.623 48.8761V53.7241H161.887V44.7961H164.623V45.9161C164.901 45.5428 165.263 45.2495 165.711 45.0361C166.159 44.8121 166.666 44.7001 167.231 44.7001C167.903 44.7001 168.501 44.8441 169.023 45.1321C169.557 45.4201 169.973 45.8308 170.271 46.3641C170.581 45.8735 171.002 45.4735 171.535 45.1641C172.069 44.8548 172.65 44.7001 173.279 44.7001ZM181.881 46.0601C182.148 45.6441 182.516 45.3081 182.985 45.0521C183.454 44.7961 184.004 44.6681 184.633 44.6681C185.369 44.6681 186.036 44.8548 186.633 45.2281C187.23 45.6015 187.7 46.1348 188.041 46.8281C188.393 47.5215 188.569 48.3268 188.569 49.2441C188.569 50.1615 188.393 50.9721 188.041 51.6761C187.7 52.3695 187.23 52.9081 186.633 53.2921C186.036 53.6655 185.369 53.8521 184.633 53.8521C184.014 53.8521 183.465 53.7241 182.985 53.4681C182.516 53.2121 182.148 52.8815 181.881 52.4761V57.9801H179.145V44.7961H181.881V46.0601ZM185.785 49.2441C185.785 48.5615 185.593 48.0281 185.209 47.6441C184.836 47.2495 184.372 47.0521 183.817 47.0521C183.273 47.0521 182.809 47.2495 182.425 47.6441C182.052 48.0388 181.865 48.5775 181.865 49.2601C181.865 49.9428 182.052 50.4815 182.425 50.8761C182.809 51.2708 183.273 51.4681 183.817 51.4681C184.361 51.4681 184.825 51.2708 185.209 50.8761C185.593 50.4708 185.785 49.9268 185.785 49.2441ZM193.06 41.8841V53.7241H190.324V41.8841H193.06ZM203.779 49.1161C203.779 49.3721 203.763 49.6388 203.731 49.9161H197.539C197.582 50.4708 197.758 50.8975 198.067 51.1961C198.387 51.4841 198.776 51.6281 199.235 51.6281C199.918 51.6281 200.392 51.3401 200.659 50.7641H203.571C203.422 51.3508 203.15 51.8788 202.755 52.3481C202.371 52.8175 201.886 53.1855 201.299 53.4521C200.712 53.7188 200.056 53.8521 199.331 53.8521C198.456 53.8521 197.678 53.6655 196.995 53.2921C196.312 52.9188 195.779 52.3855 195.395 51.6921C195.011 50.9988 194.819 50.1881 194.819 49.2601C194.819 48.3321 195.006 47.5215 195.379 46.8281C195.763 46.1348 196.296 45.6015 196.979 45.2281C197.662 44.8548 198.446 44.6681 199.331 44.6681C200.195 44.6681 200.963 44.8495 201.635 45.2121C202.307 45.5748 202.83 46.0921 203.203 46.7641C203.587 47.4361 203.779 48.2201 203.779 49.1161ZM200.979 48.3961C200.979 47.9268 200.819 47.5535 200.499 47.2761C200.179 46.9988 199.779 46.8601 199.299 46.8601C198.84 46.8601 198.451 46.9935 198.131 47.2601C197.822 47.5268 197.63 47.9055 197.555 48.3961H200.979ZM210.518 51.4041V53.7241H209.126C208.134 53.7241 207.361 53.4841 206.806 53.0041C206.252 52.5135 205.974 51.7188 205.974 50.6201V47.0681H204.886V44.7961H205.974V42.6201H208.71V44.7961H210.502V47.0681H208.71V50.6521C208.71 50.9188 208.774 51.1108 208.902 51.2281C209.03 51.3455 209.244 51.4041 209.542 51.4041H210.518ZM216.426 53.8521C215.552 53.8521 214.762 53.6655 214.058 53.2921C213.365 52.9188 212.816 52.3855 212.41 51.6921C212.016 50.9988 211.818 50.1881 211.818 49.2601C211.818 48.3428 212.021 47.5375 212.426 46.8441C212.832 46.1401 213.386 45.6015 214.09 45.2281C214.794 44.8548 215.584 44.6681 216.458 44.6681C217.333 44.6681 218.122 44.8548 218.826 45.2281C219.53 45.6015 220.085 46.1401 220.49 46.8441C220.896 47.5375 221.098 48.3428 221.098 49.2601C221.098 50.1775 220.89 50.9881 220.474 51.6921C220.069 52.3855 219.509 52.9188 218.794 53.2921C218.09 53.6655 217.301 53.8521 216.426 53.8521ZM216.426 51.4841C216.949 51.4841 217.392 51.2921 217.754 50.9081C218.128 50.5241 218.314 49.9748 218.314 49.2601C218.314 48.5455 218.133 47.9961 217.77 47.6121C217.418 47.2281 216.981 47.0361 216.458 47.0361C215.925 47.0361 215.482 47.2281 215.13 47.6121C214.778 47.9855 214.602 48.5348 214.602 49.2601C214.602 49.9748 214.773 50.5241 215.114 50.9081C215.466 51.2921 215.904 51.4841 216.426 51.4841Z" fill="white"/>
</svg>
