<svg width="59" height="20" viewBox="0 0 59 20" fill="none" xmlns="http://www.w3.org/2000/svg">
<path fill-rule="evenodd" clip-rule="evenodd" d="M41.6471 0.501269H42.8072C43.1939 0.501269 43.2911 0.628124 43.2887 1.00869C43.2887 1.14286 43.2908 1.2566 43.2926 1.35392C43.2979 1.64285 43.3006 1.787 43.2375 1.89135C43.1746 1.99524 43.0466 2.05968 42.791 2.18828L42.791 2.18831C42.7113 2.22842 42.6192 2.27478 42.5128 2.33052C42.3316 2.4259 42.1517 2.5215 41.972 2.617L41.9719 2.61702L41.9719 2.61704C41.5254 2.85429 41.0799 3.09099 40.6192 3.32252C40.2175 3.52803 39.9381 3.35804 39.9331 2.90644V1.01376C39.9331 0.663643 40.0878 0.506343 40.4321 0.506343C40.7351 0.498734 41.0381 0.499682 41.3421 0.500633C41.4437 0.500951 41.5453 0.501269 41.6471 0.501269ZM53.7394 12.8725H49.1963C48.7872 12.8725 48.7797 12.8725 48.877 13.2937C49.029 14.0319 49.4162 14.6986 49.9787 15.1903C50.5412 15.6821 51.2474 15.9714 51.988 16.0134C52.5672 16.0802 53.1537 16.0223 53.7094 15.8435C54.2652 15.6647 54.7777 15.3691 55.2138 14.9758C55.6304 14.6053 55.6953 14.6028 56.1918 14.8717L57.8134 15.7521C58.1801 15.95 58.2201 16.2418 57.9332 16.5513C57.2818 17.2666 56.4894 17.834 55.6077 18.2166C54.7259 18.5991 53.7748 18.7881 52.8163 18.7713C51.3388 18.8189 49.8796 18.4275 48.6175 17.6448C47.7667 17.1266 47.0441 16.4168 46.5052 15.5702C45.9663 14.7235 45.6255 13.7624 45.509 12.7609C45.3112 11.4584 45.4603 10.1259 45.9406 8.90194C46.2562 8.07433 46.7323 7.3197 47.3404 6.68293C47.9486 6.04616 48.6764 5.54023 49.4807 5.19524C51.144 4.41282 53.0329 4.28272 54.7847 4.82989C56.5635 5.38298 57.7211 6.62362 58.3922 8.35646C58.8606 9.65411 59.0619 11.0358 58.9835 12.4158C58.9913 12.5179 58.9602 12.6192 58.8965 12.6986C58.8329 12.7779 58.7416 12.8293 58.6417 12.8421C58.5094 12.8687 58.3748 12.8814 58.24 12.8801L53.7394 12.8725ZM52.1926 10.2872H55.3261L55.3551 10.2874C55.4829 10.2886 55.6217 10.2898 55.6055 10.0918C55.5281 9.20385 55.2512 8.40721 54.5452 7.82875C53.8814 7.31138 53.0576 7.05225 52.2225 7.09806C50.4312 7.09806 49.1813 8.15857 48.8545 9.94976C48.7946 10.277 48.8021 10.2872 49.1414 10.2872H52.1926ZM43.2904 17.8217V11.6641L43.2979 5.4533C43.2979 4.88753 43.0185 4.70993 42.5195 4.96364C42.2052 5.12838 41.8939 5.29636 41.5822 5.46461C41.1643 5.69022 40.7454 5.91633 40.3166 6.13578C40.1927 6.18947 40.0887 6.28178 40.0197 6.39941C39.9506 6.51705 39.9201 6.65393 39.9324 6.79035V10.8015V17.8394C39.9324 18.3037 40.0572 18.4331 40.5037 18.4331H42.6967C43.2031 18.4331 43.2904 18.3291 43.2904 17.8217ZM16.5568 11.6638V5.45297C16.5568 4.88466 16.8387 4.69184 17.3327 4.96077C18.0528 5.33965 18.7705 5.72444 19.4857 6.11515C19.5209 6.14227 19.5611 6.16196 19.6039 6.17308C19.6467 6.1842 19.6912 6.18652 19.7349 6.1799C19.7786 6.17329 19.8205 6.15787 19.8583 6.13455C19.896 6.11124 19.9288 6.08049 19.9547 6.04412C20.9127 5.00644 22.1377 4.59289 23.4974 4.52186C24.0105 4.49404 24.5252 4.52468 25.0317 4.61319C25.9913 4.75324 26.8645 5.25381 27.4791 6.01621C27.6013 6.1659 27.6787 6.20395 27.8458 6.07202C29.2834 4.9475 31.076 4.397 32.8853 4.52439C33.8699 4.5424 34.8191 4.90026 35.5773 5.53923C36.258 6.15741 36.7397 6.96997 36.9594 7.87083C37.1495 8.56888 37.2435 9.29036 37.2388 10.0147V17.8492C37.2388 18.3567 37.154 18.4302 36.675 18.4328H34.4646C34.013 18.4328 33.8883 18.3059 33.8858 17.8416V10.3927C33.8878 9.8873 33.792 9.38643 33.6039 8.91865C33.2471 8.03828 32.556 7.6501 31.6529 7.6019C29.9714 7.52578 28.8737 8.52286 28.6591 10.3115C28.6201 10.6203 28.6009 10.9313 28.6018 11.2426V17.8112C28.6018 18.3186 28.497 18.4328 28.0055 18.4328H25.7876C25.3685 18.4328 25.2437 18.3034 25.2437 17.8695V10.3115C25.2432 9.93544 25.1946 9.56103 25.099 9.19773C24.8496 8.26154 24.2857 7.72114 23.3402 7.61966C22.3123 7.50802 21.3793 7.74144 20.6807 8.58375C20.1938 9.18508 19.9345 9.94372 19.9497 10.7225C19.9398 12.2736 19.9431 13.8259 19.9464 15.3777V15.378C19.9481 16.1537 19.9497 16.9293 19.9497 17.7046C19.9572 17.8144 19.9572 17.9246 19.9497 18.0345C19.9502 18.0923 19.9381 18.1495 19.9145 18.202C19.8909 18.2546 19.8562 18.3013 19.8129 18.3388C19.7696 18.3763 19.7188 18.4036 19.664 18.419C19.6092 18.4344 19.5517 18.4373 19.4957 18.4277H16.9535C16.6541 18.4277 16.5543 18.2882 16.5543 17.9203L16.5568 11.6638ZM1.83745 16.4492C3.29442 17.9842 5.12063 18.6539 7.19383 18.6539C7.77004 18.6713 8.34606 18.6133 8.90776 18.4814C11.0134 18.0019 12.65 16.8704 13.6479 14.9016C14.3823 13.4345 14.6065 11.7578 14.2841 10.1445C13.84 7.5998 12.4479 5.79846 10.0679 4.85466C9.24679 4.54687 8.34376 4.55263 7.52655 4.87087C6.70934 5.18911 6.03351 5.79819 5.62459 6.58496C5.36014 7.07209 5.43 7.36385 5.85911 7.63786C7.13312 8.44128 8.39882 9.24807 9.65621 10.0583C9.81445 10.1589 9.97295 10.2594 10.1315 10.36C10.6605 10.6954 11.1904 11.0315 11.7144 11.375C12.0437 11.5907 12.0213 11.885 11.682 12.0778L11.5124 12.164L5.69694 15.0563C5.35764 15.2365 5.01835 15.4039 4.67407 15.5638C4.62293 15.5946 4.56489 15.6116 4.50547 15.6133C4.44605 15.6149 4.38721 15.6011 4.3345 15.5732C4.28179 15.5452 4.23696 15.5041 4.20426 15.4536C4.17157 15.4031 4.15208 15.345 4.14765 15.2847C4.13265 15.1763 4.12764 15.0667 4.13268 14.9574V8.66285C4.13469 8.29609 4.16243 7.92932 4.19008 7.56388C4.19686 7.47428 4.20363 7.38477 4.21002 7.29535C4.25621 6.61777 4.38872 5.94915 4.60421 5.30627C4.64911 5.16926 4.69901 5.00942 4.54683 4.90287C4.40972 4.80686 4.29691 4.86737 4.18285 4.92854C4.17031 4.93527 4.15776 4.942 4.14515 4.94853C4.09264 4.97616 4.04276 5.00913 3.99359 5.04162C3.97503 5.0539 3.95656 5.0661 3.93809 5.07793C3.30868 5.49105 2.73067 5.98002 2.21667 6.53422C0.622478 8.22647 -0.245721 10.1876 0.0611409 12.5852C0.219233 14.0368 0.843565 15.3949 1.83745 16.4492Z" fill="#00E2F4"/>
</svg>
